<?xml version="1.0" encoding="utf-8"?>
<!-- Generator: Adobe Illustrator 26.0.1, SVG Export Plug-In . SVG Version: 6.00 Build 0)  -->
<svg version="1.1" id="Layer_1" xmlns="http://www.w3.org/2000/svg" xmlns:xlink="http://www.w3.org/1999/xlink" x="0px" y="0px"
	 viewBox="0 0 200 200" style="enable-background:new 0 0 200 200;" xml:space="preserve">
<style type="text/css">
	.st0{fill:#94F7FF;}
	.st1{fill:#ED1E79;}
</style>
<g>
	<path class="st0" d="M168.4,60.4c-6.9-11.9-16.9-21.9-28.9-28.8C127.9,24.8,114.4,21,100,21s-27.9,3.8-39.5,10.6
		c-12,6.9-21.9,16.9-28.9,28.8C24.9,72,21,85.6,21,100s3.9,28,10.6,39.6c6.9,12,16.9,21.9,28.9,28.8C72.1,175.1,85.6,179,100,179
		s27.9-3.9,39.5-10.6c12-6.9,21.9-16.9,28.9-28.8C175.1,128,179,114.4,179,100S175.1,72,168.4,60.4z M110.6,139.6
		c-3.4,0.9-7,1.4-10.6,1.4s-7.2-0.5-10.6-1.4c-14-3.7-25-14.7-28.9-28.6c-1-3.5-1.5-7.2-1.5-11s0.5-7.5,1.5-11
		c3.9-13.9,14.9-24.9,28.9-28.6c3.4-0.9,7-1.4,10.6-1.4s7.2,0.5,10.6,1.4c14,3.7,25,14.7,28.9,28.6c1,3.5,1.5,7.2,1.5,11
		s-0.5,7.5-1.5,11C135.6,124.9,124.6,135.9,110.6,139.6z"/>
	<path d="M179,21v38c-3.7,0-7.2,0.5-10.6,1.4c-14,3.7-25,14.7-28.9,28.6c-1,3.5-1.5,7.2-1.5,11s0.5,7.5,1.5,11
		c-3.9,13.9-14.9,24.9-28.9,28.6C103.9,128,100,114.4,100,100s3.9-28,10.6-39.6c6.9-11.9,16.9-21.9,28.9-28.8
		C151.1,24.8,164.6,21,179,21z"/>
	<path class="st1" d="M100,100c0,14.4-3.9,28-10.6,39.6c-6.9,12-16.9,21.9-28.9,28.8C48.9,175.1,35.4,179,21,179v-38
		c3.7,0,7.2-0.5,10.6-1.4c14-3.7,25-14.7,28.9-28.6c1-3.5,1.5-7.2,1.5-11s-0.5-7.5-1.5-11c3.9-13.9,14.9-24.9,28.9-28.6
		C96.1,72,100,85.6,100,100z"/>
</g>
</svg>
