<?xml version="1.0" encoding="utf-8"?>
<!-- Generator: Adobe Illustrator 26.0.1, SVG Export Plug-In . SVG Version: 6.00 Build 0)  -->
<svg version="1.1" id="Layer_1" xmlns="http://www.w3.org/2000/svg" xmlns:xlink="http://www.w3.org/1999/xlink" x="0px" y="0px"
	 viewBox="0 0 122.9 119.8" style="enable-background:new 0 0 122.9 119.8;" xml:space="preserve">
<style type="text/css">
	.st0{fill:#FFFFFF;}
</style>
<g>
	<path class="st0" d="M50,0L50,0L50,0c13.8,0,26.3,5.6,35.4,14.7c9,9,14.6,21.5,14.6,35.3h0v0v0h0c0,5.6-0.9,10.9-2.6,15.9
		c-0.3,0.8-0.6,1.6-0.9,2.4v0c-1.4,3.7-3.3,7.1-5.5,10.3l29.1,26.1l0,0l0.2,0.1l0,0c1.6,1.6,2.5,3.7,2.6,5.8c0.1,2.1-0.5,4.2-2,6
		l0,0l-0.2,0.2l0,0l-0.1,0.2l0,0c-1.6,1.6-3.7,2.5-5.8,2.6c-2.1,0.1-4.2-0.5-6-2l0,0l-0.2-0.2l0,0L78.8,90.9
		c-0.9,0.6-1.8,1.2-2.7,1.8c-1.2,0.8-2.5,1.5-3.8,2.1C65.6,98.1,58,100,50,100v0h0v0c-13.8,0-26.3-5.6-35.3-14.6
		C5.6,76.3,0,63.8,0,50h0v0v0h0c0-13.8,5.6-26.3,14.6-35.3C23.7,5.6,36.2,0,50,0L50,0L50,0L50,0z M50,11.2L50,11.2L50,11.2L50,11.2
		L50,11.2c-10.7,0-20.4,4.3-27.4,11.4c-7,7-11.4,16.7-11.4,27.4h0v0v0h0c0,10.7,4.3,20.4,11.4,27.4c7,7,16.7,11.4,27.4,11.4v0h0h0v0
		c10.7,0,20.4-4.3,27.4-11.4c7-7,11.4-16.7,11.4-27.4h0v0v0h0c0-10.7-4.3-20.4-11.4-27.4C70.4,15.6,60.7,11.2,50,11.2L50,11.2z"/>
</g>
</svg>
